<svg width="15" height="15" viewBox="0 0 15 15" fill="none" xmlns="http://www.w3.org/2000/svg">
<path d="M14.2188 7.21875C14.2188 11.0848 11.0848 14.2188 7.21875 14.2188C3.35275 14.2188 0.21875 11.0848 0.21875 7.21875C0.21875 3.35275 3.35275 0.21875 7.21875 0.21875C11.0848 0.21875 14.2188 3.35275 14.2188 7.21875ZM10.2205 6.22153C10.3599 5.29011 9.65063 4.78938 8.68082 4.45536L8.99542 3.19361L8.22731 3.00221L7.92104 4.23071C7.71911 4.18038 7.51171 4.13294 7.30563 4.08591L7.61411 2.84934L6.84642 2.65794L6.53162 3.91924C6.36447 3.88116 6.20039 3.84354 6.04114 3.80396L6.04202 3.80001L4.9827 3.53554L4.77837 4.35583C4.77837 4.35583 5.34828 4.48643 5.33626 4.49451C5.64736 4.57216 5.70359 4.77801 5.69416 4.94118L5.33581 6.37858C5.35726 6.38406 5.38503 6.39193 5.41566 6.40418C5.39006 6.39783 5.36271 6.39083 5.33448 6.38406L4.83217 8.39763C4.7941 8.49213 4.69762 8.63388 4.48017 8.58008C4.48782 8.59123 3.92186 8.44073 3.92186 8.44073L3.54053 9.31988L4.54012 9.56903C4.72607 9.61563 4.90833 9.6644 5.0877 9.71033L4.76982 10.9865L5.53706 11.1779L5.85186 9.91527C6.05533 9.97042 6.25938 10.0234 6.46399 10.0741L6.15026 11.3308L6.91837 11.5222L7.23625 10.2484C8.54604 10.4963 9.53098 10.3963 9.94553 9.21177C10.2796 8.25802 9.92891 7.70787 9.23977 7.34912C9.74163 7.23346 10.1197 6.90338 10.2205 6.22153ZM8.46554 8.68223C8.22816 9.63598 6.62217 9.12038 6.10149 8.9911L6.52329 7.30041C7.04395 7.43033 8.71362 7.68758 8.46554 8.68223ZM8.70312 6.20776C8.48654 7.07531 7.14982 6.63453 6.71622 6.52648L7.09862 4.99306C7.53225 5.10111 8.92867 5.30278 8.70312 6.20776Z" fill="#FBAC58"/>
</svg>
