<svg width="24" height="24" viewBox="0 0 24 24" fill="none" xmlns="http://www.w3.org/2000/svg">
<path d="M13.432 14.64L13.525 14.718L20.453 21.518C19.9412 21.8338 19.3514 22.0008 18.75 22H7.25C6.64866 22.0011 6.05893 21.8345 5.547 21.519L12.475 14.718L12.558 14.647C12.6847 14.5546 12.8371 14.5043 12.9939 14.503C13.1506 14.5018 13.3039 14.5497 13.432 14.64ZM18.75 4C19.1768 4 19.5994 4.08406 19.9937 4.24739C20.388 4.41072 20.7463 4.65011 21.0481 4.9519C21.3499 5.25369 21.5893 5.61197 21.7526 6.00628C21.9159 6.40059 22 6.8232 22 7.25V18.75C22 19.377 21.822 19.963 21.515 20.46L14.576 13.647L14.448 13.531C14.0437 13.1911 13.5328 13.0042 13.0046 13.0031C12.4764 13.002 11.9647 13.1867 11.559 13.525L11.424 13.648L4.485 20.459C4.16702 19.9458 3.99902 19.3538 4 18.75V12.502C5.18913 12.9983 6.49892 13.1299 7.76303 12.8802C9.02713 12.6305 10.1885 12.0108 11.0996 11.0996C12.0108 10.1885 12.6305 9.02713 12.8802 7.76303C13.1299 6.49892 12.9983 5.18913 12.502 4H18.75ZM6.5 1C7.22227 1 7.93747 1.14226 8.60476 1.41866C9.27205 1.69506 9.87837 2.10019 10.3891 2.61091C10.8998 3.12163 11.3049 3.72795 11.5813 4.39524C11.8577 5.06253 12 5.77773 12 6.5C12 7.22227 11.8577 7.93747 11.5813 8.60476C11.3049 9.27205 10.8998 9.87837 10.3891 10.3891C9.87837 10.8998 9.27205 11.3049 8.60476 11.5813C7.93747 11.8577 7.22227 12 6.5 12C5.04131 12 3.64236 11.4205 2.61091 10.3891C1.57946 9.35764 1 7.95869 1 6.5C1 5.04131 1.57946 3.64236 2.61091 2.61091C3.64236 1.57946 5.04131 1 6.5 1ZM16.752 7C16.1547 7 15.5819 7.23726 15.1596 7.6596C14.7373 8.08193 14.5 8.65473 14.5 9.252C14.5 9.84927 14.7373 10.4221 15.1596 10.8444C15.5819 11.2667 16.1547 11.504 16.752 11.504C17.3493 11.504 17.9221 11.2667 18.3444 10.8444C18.7667 10.4221 19.004 9.84927 19.004 9.252C19.004 8.65473 18.7667 8.08193 18.3444 7.6596C17.9221 7.23726 17.3493 7 16.752 7ZM16.752 8.5C16.9514 8.5 17.1427 8.57923 17.2837 8.72026C17.4248 8.86128 17.504 9.05256 17.504 9.252C17.504 9.45144 17.4248 9.64272 17.2837 9.78374C17.1427 9.92477 16.9514 10.004 16.752 10.004C16.5526 10.004 16.3613 9.92477 16.2203 9.78374C16.0792 9.64272 16 9.45144 16 9.252C16 9.05256 16.0792 8.86128 16.2203 8.72026C16.3613 8.57923 16.5526 8.5 16.752 8.5ZM6.5 3L6.41 3.007C6.3101 3.02525 6.21812 3.07349 6.14631 3.14531C6.07449 3.21712 6.02625 3.3091 6.008 3.409L6 3.5V6H3.498L3.408 6.008C3.3081 6.02625 3.21612 6.07449 3.14431 6.14631C3.07249 6.21812 3.02425 6.3101 3.006 6.41L2.998 6.5L3.006 6.59C3.02425 6.6899 3.07249 6.78188 3.14431 6.85369C3.21612 6.92551 3.3081 6.97375 3.408 6.992L3.498 7H6V9.503L6.008 9.593C6.02625 9.6929 6.07449 9.78488 6.14631 9.85669C6.21812 9.92851 6.3101 9.97675 6.41 9.995L6.5 10.004L6.59 9.995C6.6899 9.97675 6.78188 9.92851 6.85369 9.85669C6.92551 9.78488 6.97375 9.6929 6.992 9.593L7 9.503V7H9.505L9.595 6.992C9.6949 6.97375 9.78688 6.92551 9.85869 6.85369C9.93051 6.78188 9.97875 6.6899 9.997 6.59L10.005 6.5L9.997 6.41C9.97868 6.30996 9.93029 6.21788 9.85829 6.14605C9.78628 6.07423 9.69409 6.02607 9.594 6.008L9.504 6H7V3.5L6.992 3.41C6.97393 3.30991 6.92577 3.21772 6.85395 3.14571C6.78212 3.07371 6.69004 3.02532 6.59 3.007L6.5 3Z" fill="#D0D0D0"/>
</svg>
