<svg width="24" height="24" viewBox="0 0 24 24" fill="none" xmlns="http://www.w3.org/2000/svg">
<path d="M17.002 15.244L17 21.245C17 21.3824 16.9622 21.5171 16.8909 21.6345C16.8195 21.7519 16.7172 21.8475 16.5953 21.9107C16.4733 21.974 16.3363 22.0025 16.1993 21.9932C16.0622 21.9839 15.9303 21.9371 15.818 21.858L12 19.171L8.183 21.858C8.0707 21.9369 7.93891 21.9834 7.802 21.9925C7.66508 22.0017 7.52828 21.9731 7.40648 21.9099C7.28469 21.8467 7.18257 21.7512 7.11125 21.634C7.03993 21.5168 7.00214 21.3822 7.002 21.245L7 15.245C8.41756 16.3834 10.1819 17.0027 12 17C13.8189 17.0029 15.584 16.3832 17.002 15.244ZM12 2C13.8565 2 15.637 2.7375 16.9497 4.05025C18.2625 5.36301 19 7.14348 19 9C19 10.8565 18.2625 12.637 16.9497 13.9497C15.637 15.2625 13.8565 16 12 16C10.1435 16 8.36301 15.2625 7.05025 13.9497C5.7375 12.637 5 10.8565 5 9C5 7.14348 5.7375 5.36301 7.05025 4.05025C8.36301 2.7375 10.1435 2 12 2Z" fill="#A0A0A0"/>
</svg>
