<svg width="14" height="14" viewBox="0 0 14 14" fill="none" xmlns="http://www.w3.org/2000/svg">
<path d="M13.6473 0.172277C13.8688 0.33634 14 0.59884 14 0.875012V2.84376V10.0625C14 11.2711 12.8242 12.25 11.375 12.25C9.92578 12.25 8.75 11.2711 8.75 10.0625C8.75 8.85392 9.92578 7.87501 11.375 7.87501C11.6812 7.87501 11.9766 7.91876 12.25 8.00079V4.01954L5.25 6.11954V11.8125C5.25 13.0211 4.07422 14 2.625 14C1.17578 14 0 13.0211 0 11.8125C0 10.6039 1.17578 9.62501 2.625 9.62501C2.93125 9.62501 3.22656 9.66876 3.5 9.75079V5.46876V3.50001C3.5 3.11446 3.7543 2.77267 4.12344 2.66056L12.8734 0.0355587C13.1387 -0.0437382 13.4258 0.00548059 13.6473 0.172277Z" fill="#74FFFF"/>
</svg>
