<svg width="9" height="8" viewBox="0 0 9 8" fill="none" xmlns="http://www.w3.org/2000/svg">
<path d="M1.78571 0.44464H3.24444C3.32447 0.444666 3.40149 0.476748 3.45997 0.534404C3.51844 0.592059 3.55399 0.670989 3.55945 0.755246C3.5649 0.839502 3.53985 0.922802 3.48935 0.988315C3.43885 1.05383 3.36667 1.09667 3.2874 1.10818L3.24444 1.11129H1.78571C1.54563 1.11126 1.31448 1.20742 1.13899 1.38034C0.963497 1.55325 0.856749 1.79003 0.840316 2.04282L0.838211 2.11126V6.33338C0.838181 6.58676 0.929295 6.83071 1.09314 7.01592C1.25698 7.20113 1.48134 7.31379 1.72086 7.33113L1.78571 7.33335H5.78627C6.02636 7.33338 6.25751 7.23722 6.433 7.0643C6.60849 6.89139 6.71524 6.65461 6.73167 6.40182L6.73378 6.33338V6.11205C6.73307 6.02704 6.76317 5.94496 6.81792 5.8826C6.87267 5.82024 6.94793 5.78231 7.0283 5.77657C7.10866 5.77084 7.18807 5.79773 7.25028 5.85175C7.31248 5.90577 7.35277 5.98282 7.36292 6.06716L7.36544 6.11205V6.33338C7.36548 6.76003 7.21047 7.17045 6.93236 7.4801C6.65424 7.78974 6.27419 7.97502 5.8705 7.99778L5.78627 8H1.78571C1.38145 8.00004 0.992561 7.83645 0.699166 7.54293C0.40577 7.24941 0.230209 6.84831 0.208649 6.42226L0.206543 6.33338V2.11126C0.206507 1.68461 0.361513 1.27419 0.639632 0.964544C0.91775 0.6549 1.2978 0.469617 1.70149 0.446863L1.78571 0.44464ZM5.05059 1.57528V0.333532C5.05056 0.272221 5.06654 0.212087 5.0968 0.159745C5.12705 0.107403 5.1704 0.0648808 5.22207 0.0368568C5.27374 0.0088327 5.33173 -0.00360776 5.38967 0.000903753C5.4476 0.00541527 5.50324 0.026704 5.55045 0.0624281L5.58498 0.093094L8.10913 2.64858C8.22704 2.76769 8.23799 2.95969 8.14155 3.09168L8.10913 3.12946L5.58498 5.68584C5.54309 5.72832 5.49092 5.75778 5.43419 5.77099C5.37746 5.78419 5.31838 5.78063 5.26344 5.76069C5.20851 5.74075 5.15985 5.70521 5.12282 5.65798C5.08578 5.61074 5.06181 5.55364 5.05354 5.49295L5.05059 5.4454V4.2001L4.91542 4.19743C3.7961 4.19388 2.83933 4.67875 2.02448 5.66451C1.81561 5.91694 1.4244 5.72317 1.47451 5.39251C1.82277 3.10813 2.99051 1.81705 4.92342 1.58861L5.05059 1.57528Z" fill="white"/>
</svg>
