<svg width="16" height="16" viewBox="0 0 16 16" fill="none" xmlns="http://www.w3.org/2000/svg">
<g clip-path="url(#clip0_102_560)">
<path d="M15.5656 0.174997C15.8812 0.393747 16.0469 0.771872 15.9875 1.15L13.9875 14.15C13.9406 14.4531 13.7562 14.7187 13.4875 14.8687C13.2187 15.0187 12.8969 15.0375 12.6125 14.9187L8.87499 13.3656L6.73436 15.6812C6.45624 15.9844 6.01874 16.0844 5.63437 15.9344C5.24999 15.7844 4.99999 15.4125 4.99999 15V12.3875C4.99999 12.2625 5.04686 12.1437 5.13124 12.0531L10.3687 6.3375C10.55 6.14062 10.5437 5.8375 10.3562 5.65C10.1687 5.4625 9.86561 5.45 9.66874 5.62812L3.31249 11.275L0.553115 9.89375C0.221865 9.72812 0.00936479 9.39687 -1.02076e-05 9.02812C-0.00938521 8.65937 0.184365 8.31562 0.503115 8.13125L14.5031 0.131247C14.8375 -0.0593776 15.25 -0.0406276 15.5656 0.174997Z" fill="#E9FF74"/>
</g>
<defs>
<clipPath id="clip0_102_560">
<rect width="16" height="16" fill="white"/>
</clipPath>
</defs>
</svg>
