<svg width="14" height="14" viewBox="0 0 14 14" fill="none" xmlns="http://www.w3.org/2000/svg">
<path d="M11.4105 9.84648L9.45273 9.71523C9.31055 9.70703 9.17109 9.74531 9.05625 9.83008C8.94141 9.91484 8.85938 10.0324 8.82656 10.1719L8.34531 12.075C7.91602 12.1898 7.46484 12.25 7 12.25C6.53516 12.25 6.08398 12.1898 5.65469 12.075L5.17344 10.1719C5.13789 10.0352 5.05586 9.91484 4.94375 9.83008C4.83164 9.74531 4.68945 9.70703 4.54727 9.71523L2.58945 9.84648C2.1082 9.10273 1.81016 8.22773 1.7582 7.28711L3.41797 6.24258C3.53828 6.16602 3.62578 6.05117 3.66953 5.91719C3.71328 5.7832 3.70781 5.63828 3.65586 5.50703L2.92578 3.68594C3.5 2.98594 4.24648 2.43359 5.10508 2.10273L6.61445 3.36055C6.72383 3.45078 6.86055 3.5 7 3.5C7.13945 3.5 7.27891 3.45078 7.38555 3.36055L8.89492 2.10273C9.75078 2.43359 10.5 2.98594 11.0715 3.68594L10.3414 5.50703C10.2895 5.63828 10.284 5.7832 10.3277 5.91719C10.3715 6.05117 10.4617 6.16602 10.5793 6.24258L12.2391 7.28711C12.1871 8.22773 11.8891 9.10273 11.4078 9.84648H11.4105ZM7 14C8.85652 14 10.637 13.2625 11.9497 11.9497C13.2625 10.637 14 8.85652 14 7C14 5.14348 13.2625 3.36301 11.9497 2.05025C10.637 0.737498 8.85652 0 7 0C5.14348 0 3.36301 0.737498 2.05025 2.05025C0.737498 3.36301 0 5.14348 0 7C0 8.85652 0.737498 10.637 2.05025 11.9497C3.36301 13.2625 5.14348 14 7 14ZM7.38555 5.09414C7.15586 4.92734 6.84414 4.92734 6.61445 5.09414L5.30469 6.04297C5.075 6.20977 4.9793 6.50508 5.0668 6.77578L5.56719 8.31523C5.65469 8.58594 5.90625 8.76914 6.19062 8.76914H7.80938C8.09375 8.76914 8.34531 8.58594 8.43281 8.31523L8.9332 6.77578C9.0207 6.50508 8.925 6.20977 8.69531 6.04297L7.38555 5.09141V5.09414Z" fill="#E9FF74"/>
</svg>
