<svg width="14" height="14" viewBox="0 0 14 14" fill="none" xmlns="http://www.w3.org/2000/svg">
<path d="M8.89791 9.22718L9.72874 11.8275C9.81225 12.0887 9.80557 12.3721 9.70986 12.6288C9.61416 12.8854 9.43544 13.0991 9.20462 13.2329C8.31749 13.7477 7.20324 14 5.8677 14C4.53215 14 3.4179 13.7477 2.53078 13.2329C2.29996 13.0991 2.12124 12.8854 2.02553 12.6288C1.92982 12.3721 1.92314 12.0887 2.00665 11.8275L2.83813 9.22718C3.7091 9.91775 4.77352 10.2909 5.8677 10.2892C7.00653 10.2892 8.05607 9.89378 8.89791 9.22718ZM5.8677 0.506024C6.73282 0.506024 7.53842 0.767807 8.21655 1.22053C8.16349 1.43171 8.08196 1.58757 7.97907 1.69552C7.81537 1.86554 7.53713 1.97889 7.12171 2.01263L6.97806 2.0214L6.73282 2.02814C5.32934 2.13542 5.36428 4.38554 6.8383 4.38554C7.41418 4.38554 7.78107 4.50766 7.97907 4.71412C8.14213 4.88482 8.25084 5.17494 8.28319 5.6081L8.29161 5.75788L8.29808 6.01359C8.3602 6.90014 9.17679 7.23614 9.81092 7.02159C9.38419 7.95416 8.66604 8.70773 7.77439 9.15859C6.88273 9.60944 5.87056 9.73078 4.90404 9.50269C3.93752 9.27459 3.0741 8.71062 2.45554 7.90336C1.83697 7.09609 1.50002 6.09352 1.5 5.06024C1.5 3.85239 1.96017 2.694 2.77927 1.83992C3.59837 0.985842 4.70931 0.506024 5.8677 0.506024ZM9.91186 0.506024C9.91186 1.28193 10.0866 1.82843 10.4166 2.17253C10.7213 2.48964 11.1918 2.66978 11.8466 2.69542L12.0148 2.6988C12.6347 2.6988 12.6606 3.62853 12.0925 3.70545L12.0148 3.71084C11.2707 3.71084 10.7466 3.89301 10.4166 4.23711C10.1125 4.55557 9.93968 5.0454 9.9151 5.72819L9.91186 5.90361C9.91186 6.57831 8.94126 6.57831 8.94126 5.90361C8.94126 5.12771 8.76655 4.5812 8.43655 4.23711C8.13113 3.92 7.66136 3.73986 7.00653 3.71422L6.8383 3.71084C6.21841 3.71084 6.19252 2.78111 6.76065 2.70419L6.8383 2.6988C7.58242 2.6988 8.10655 2.51663 8.43655 2.17253C8.76655 1.82843 8.94126 1.28193 8.94126 0.506024C8.94126 -0.168675 9.91186 -0.168675 9.91186 0.506024Z" fill="#E187FF"/>
</svg>
